# xmcd
#
# Track frame offsets: 
#        150
#        22139
#        39617
#        54671
#        81679
#        114772
#        150490
#        167878
#        213175
#
# Disc length: 3167 seconds
#
# Revision: 0
# Processed by: cddbd v1.5.2PL0 Copyright (c) Steve Scherf et al.
# Submitted via: ExactAudioCopy v1.0b3
#
DISCID=740c5d09
DTITLE=Joe Bonamassa - Live in Amsterdam
DYEAR=2014
DGENRE=Blues
TTITLE0=Well, Well
TTITLE1=If I Tell You I Love You
TTITLE2=See Saw
TTITLE3=Strange Fruit
TTITLE4=Miss Lady
TTITLE5=I Love You More Than You'll Ever Know
TTITLE6=Nutbush City Limits
TTITLE7=I'd Rather Go Blind
TTITLE8=Antwerp Jam
EXTD=
EXTT0=
EXTT1=
EXTT2=
EXTT3=
EXTT4=
EXTT5=
EXTT6=
EXTT7=
EXTT8=
PLAYORDER=
